# xmcd
#
# Track frame offsets: 
#        150
#        5663
#        24372
#        42789
#        56962
#        72626
#        87441
#        96250
#        117487
#        138257
#
# Disc length: 2015 seconds
#
# Revision: 0
# Processed by: cddbd v1.5.2PL0 Copyright (c) Steve Scherf et al.
# Submitted via: ExactAudioCopy v0.99pb3
#
DISCID=8c07dd0a
DTITLE=John Dee Holeman - You Got To Lose, You Can't Win All The Time
DYEAR=2008
DGENRE=Blues
TTITLE0=Two Trains Runnin'
TTITLE1=Mojo Hand
TTITLE2=Early Letter Blues
TTITLE3=Ain't Gonna Worry, My Life Anymore
TTITLE4=One Black Rat
TTITLE5=Three O'Clock In The Morning
TTITLE6=John Dee Jam
TTITLE7=Hoochie Coochie Man
TTITLE8=You Got To Lose, You Can't Win All The Time
TTITLE9=John Henry
EXTD=
EXTT0=
EXTT1=
EXTT2=
EXTT3=
EXTT4=
EXTT5=
EXTT6=
EXTT7=
EXTT8=
EXTT9=
PLAYORDER=
